# xmcd
# 
# Track frame offsets:
#     182
#     28417
#     44542
#     63055
#     80527
#     92345
#     106475
#     122610
#     134055
#     146707
#     157655
#     171260
#     182657
#     199037
#     209790
#     223702
#     237267
#     251532
# 
# Disc length: 3546
# 
# Revision: 2
# Processed by: cddbd v1.5.2PL0 Copyright (c) Steve Scherf et al.
# Submitted via: fre:ac v1.0.17
# 
DISCID=080dd812
DTITLE=Various Artist - The Brazil Sampler
DYEAR=0
DGENRE=
TTITLE0=Zimbo Trio - Aquarela Do Brasil
TTITLE1=Grupo Vou Vivendo - Carinhoso
TTITLE2=Paulinho Nogueira - Odeon
TTITLE3=Orquestra de Tony Fabian - Manhã de Carnaval (Black Orpheus)
TTITLE4=Pery Ribeiro - O Barquinho
TTITLE5=Brazilian Tropical Orchestra - A Felicidade
TTITLE6=Catavento - O Cio Da Terra
TTITLE7=Tropical Lambadance Group - Adocica
TTITLE8=Trio Caiowás - Travessia
TTITLE9=Olmir Stocker "Alemão" and Zezo Ribeiro - Delicado
TTITLE10=Brazilian Tropical Orchestra - Garota de Ipanema
TTITLE11=Grupo Vou Vivendo - Tico Tico no Fuba
TTITLE12=Belchior - Mucuripe
TTITLE13=Trio Caiowás - Sampa
TTITLE14=Brazilian Tropical Orchestra - A Banda
TTITLE15=Tropical Lambadance Group - Tieta
TTITLE16=Sambrasil - Quem Te Viu Quem Te Vê
TTITLE17=Brazilian Tropical Orchestra - Wave
EXTD=
EXTT0=
EXTT1=
EXTT2=
EXTT3=
EXTT4=
EXTT5=
EXTT6=
EXTT7=
EXTT8=
EXTT9=
EXTT10=
EXTT11=
EXTT12=
EXTT13=
EXTT14=
EXTT15=
EXTT16=
EXTT17=
PLAYORDER=
